STARTFONT 2.1
COMMENT Changes 2000 by Serge Winitzki.
COMMENT $XFree86$
FONT -Screen-Fixed-Medium-R-Normal--16-120-100-100-C-80-KOI8-R
SIZE 12 100 100
FONTBOUNDINGBOX 8 16 0 -2
STARTPROPERTIES 24
FONTNAME_REGISTRY ""
FOUNDRY "Screen"
FAMILY_NAME "Fixed"
WEIGHT_NAME "Medium"
SLANT "R"
SETWIDTH_NAME "Normal"
ADD_STYLE_NAME ""
PIXEL_SIZE 16
POINT_SIZE 120
RESOLUTION_X 100
RESOLUTION_Y 100
SPACING "C"
AVERAGE_WIDTH 80
CHARSET_REGISTRY "KOI8"
CHARSET_ENCODING "R"
WEIGHT 10
RESOLUTION 138
X_HEIGHT 9
QUAD_WIDTH 8
DEFAULT_CHAR 32
FONT_ASCENT 14
FONT_DESCENT 2
_XMBDFED_INFO "Edited with xmbdfed 3.8."
_XFREE86_GLYPH_RANGES "1_126 149 152_153 156_158 163 179 191_255"
ENDPROPERTIES
CHARS 199
STARTCHAR uni25C6
ENCODING 1
SWIDTH 480 0
DWIDTH 8 0
BBX 8 14 0 0
BITMAP
10
10
38
38
7C
7C
FE
FE
7C
7C
38
38
10
10
ENDCHAR
STARTCHAR shade
ENCODING 2
SWIDTH 480 0
DWIDTH 8 0
BBX 8 14 0 0
BITMAP
92
92
44
44
92
92
44
44
92
92
44
44
92
92
ENDCHAR
STARTCHAR uni2409
ENCODING 3
SWIDTH 480 0
DWIDTH 8 0
BBX 8 15 0 -2
BITMAP
88
88
88
F8
88
88
88
00
3E
08
08
08
08
08
08
ENDCHAR
STARTCHAR uni240C
ENCODING 4
SWIDTH 480 0
DWIDTH 8 0
BBX 8 14 0 -1
BITMAP
F8
80
80
F0
80
80
80
3E
20
20
3C
20
20
20
ENDCHAR
STARTCHAR uni240D
ENCODING 5
SWIDTH 480 0
DWIDTH 8 0
BBX 8 15 0 -2
BITMAP
70
88
80
80
80
88
70
00
3C
22
22
3C
28
24
22
ENDCHAR
STARTCHAR uni240A
ENCODING 6
SWIDTH 480 0
DWIDTH 8 0
BBX 8 15 0 -2
BITMAP
80
80
80
80
80
80
F8
00
3E
20
20
3C
20
20
20
ENDCHAR
STARTCHAR degree
ENCODING 7
SWIDTH 480 0
DWIDTH 8 0
BBX 8 5 0 7
BITMAP
38
44
44
44
38
ENDCHAR
STARTCHAR plusminus
ENCODING 8
SWIDTH 480 0
DWIDTH 8 0
BBX 8 11 0 1
BITMAP
10
10
10
10
FE
10
10
10
10
00
FE
ENDCHAR
STARTCHAR uni2424
ENCODING 9
SWIDTH 480 0
DWIDTH 8 0
BBX 8 15 0 -2
BITMAP
84
C4
A4
A4
94
94
8C
84
20
20
20
20
20
20
3E
ENDCHAR
STARTCHAR uni240B
ENCODING 10
SWIDTH 480 0
DWIDTH 8 0
BBX 8 13 0 -1
BITMAP
88
88
88
50
50
20
00
3E
08
08
08
08
08
ENDCHAR
STARTCHAR SF040000
ENCODING 11
SWIDTH 480 0
DWIDTH 8 0
BBX 8 9 0 5
BITMAP
10
10
10
10
10
10
10
10
F0
ENDCHAR
STARTCHAR SF030000
ENCODING 12
SWIDTH 480 0
DWIDTH 8 0
BBX 8 8 0 -2
BITMAP
F0
10
10
10
10
10
10
10
ENDCHAR
STARTCHAR SF010000
ENCODING 13
SWIDTH 480 0
DWIDTH 8 0
BBX 8 8 0 -2
BITMAP
1F
10
10
10
10
10
10
10
ENDCHAR
STARTCHAR SF020000
ENCODING 14
SWIDTH 480 0
DWIDTH 8 0
BBX 8 9 0 5
BITMAP
10
10
10
10
10
10
10
10
1F
ENDCHAR
STARTCHAR SF050000
ENCODING 15
SWIDTH 480 0
DWIDTH 8 0
BBX 8 16 0 -2
BITMAP
10
10
10
10
10
10
10
10
FF
10
10
10
10
10
10
10
ENDCHAR
STARTCHAR char16
ENCODING 16
SWIDTH 480 0
DWIDTH 8 0
BBX 8 1 0 11
BITMAP
FF
ENDCHAR
STARTCHAR char17
ENCODING 17
SWIDTH 480 0
DWIDTH 8 0
BBX 8 1 0 8
BITMAP
FF
ENDCHAR
STARTCHAR char18
ENCODING 18
SWIDTH 480 0
DWIDTH 8 0
BBX 8 1 0 5
BITMAP
FF
ENDCHAR
STARTCHAR char19
ENCODING 19
SWIDTH 480 0
DWIDTH 8 0
BBX 8 1 0 2
BITMAP
FF
ENDCHAR
STARTCHAR char20
ENCODING 20
SWIDTH 480 0
DWIDTH 8 0
BBX 8 1 0 -1
BITMAP
FF
ENDCHAR
STARTCHAR SF080000
ENCODING 21
SWIDTH 480 0
DWIDTH 8 0
BBX 8 16 0 -2
BITMAP
10
10
10
10
10
10
10
10
1F
10
10
10
10
10
10
10
ENDCHAR
STARTCHAR SF090000
ENCODING 22
SWIDTH 480 0
DWIDTH 8 0
BBX 8 16 0 -2
BITMAP
10
10
10
10
10
10
10
10
F0
10
10
10
10
10
10
10
ENDCHAR
STARTCHAR SF070000
ENCODING 23
SWIDTH 480 0
DWIDTH 8 0
BBX 8 9 0 5
BITMAP
10
10
10
10
10
10
10
10
FF
ENDCHAR
STARTCHAR SF060000
ENCODING 24
SWIDTH 480 0
DWIDTH 8 0
BBX 8 8 0 -2
BITMAP
FF
10
10
10
10
10
10
10
ENDCHAR
STARTCHAR SF110000
ENCODING 25
SWIDTH 480 0
DWIDTH 8 0
BBX 8 16 0 -2
BITMAP
10
10
10
10
10
10
10
10
10
10
10
10
10
10
10
10
ENDCHAR
STARTCHAR lessequal
ENCODING 26
SWIDTH 480 0
DWIDTH 8 0
BBX 8 10 0 0
BITMAP
02
0C
30
C0
30
0C
02
FE
00
FE
ENDCHAR
STARTCHAR greaterequal
ENCODING 27
SWIDTH 480 0
DWIDTH 8 0
BBX 8 10 0 0
BITMAP
80
60
18
06
18
60
80
FE
00
FE
ENDCHAR
STARTCHAR pi
ENCODING 28
SWIDTH 480 0
DWIDTH 8 0
BBX 8 7 0 0
BITMAP
FE
24
24
24
24
44
84
ENDCHAR
STARTCHAR notequal
ENCODING 29
SWIDTH 480 0
DWIDTH 8 0
BBX 8 9 0 1
BITMAP
02
04
08
FE
10
FE
20
40
80
ENDCHAR
STARTCHAR sterling
ENCODING 30
SWIDTH 480 0
DWIDTH 8 0
BBX 8 11 0 -1
BITMAP
0C
12
10
10
10
7C
10
10
3C
52
20
ENDCHAR
STARTCHAR periodcentered
ENCODING 31
SWIDTH 480 0
DWIDTH 8 0
BBX 8 1 0 5
BITMAP
10
ENDCHAR
STARTCHAR space
ENCODING 32
SWIDTH 480 0
DWIDTH 8 0
BBX 0 0 0 0
BITMAP
ENDCHAR
STARTCHAR exclam
ENCODING 33
SWIDTH 480 0
DWIDTH 8 0
BBX 8 14 0 -1
BITMAP
38
38
38
38
38
38
10
10
10
10
00
10
38
10
ENDCHAR
STARTCHAR quotedbl
ENCODING 34
SWIDTH 480 0
DWIDTH 8 0
BBX 8 5 0 9
BITMAP
6C
6C
24
24
48
ENDCHAR
STARTCHAR numbersign
ENCODING 35
SWIDTH 480 0
DWIDTH 8 0
BBX 8 14 0 -1
BITMAP
12
12
12
7F
24
24
24
24
24
FE
48
48
48
48
ENDCHAR
STARTCHAR dollar
ENCODING 36
SWIDTH 480 0
DWIDTH 8 0
BBX 8 16 0 -2
BITMAP
10
38
54
92
96
90
50
38
14
12
D2
92
94
78
10
10
ENDCHAR
STARTCHAR percent
ENCODING 37
SWIDTH 480 0
DWIDTH 8 0
BBX 8 16 0 -2
BITMAP
02
62
94
94
94
98
68
10
10
2C
32
52
52
52
8C
80
ENDCHAR
STARTCHAR ampersand
ENCODING 38
SWIDTH 480 0
DWIDTH 8 0
BBX 8 13 0 0
BITMAP
30
48
48
48
50
20
2E
54
54
94
88
8C
72
ENDCHAR
STARTCHAR quotesingle
ENCODING 39
SWIDTH 480 0
DWIDTH 8 0
BBX 8 5 0 9
BITMAP
60
60
60
60
40
ENDCHAR
STARTCHAR parenleft
ENCODING 40
SWIDTH 480 0
DWIDTH 8 0
BBX 8 16 0 -2
BITMAP
02
04
08
08
10
10
10
10
10
10
10
10
08
08
04
02
ENDCHAR
STARTCHAR parenright
ENCODING 41
SWIDTH 480 0
DWIDTH 8 0
BBX 8 16 0 -2
BITMAP
80
40
20
20
10
10
10
10
10
10
10
10
20
20
40
80
ENDCHAR
STARTCHAR asterisk
ENCODING 42
SWIDTH 480 0
DWIDTH 8 0
BBX 8 9 0 2
BITMAP
10
38
92
D6
38
D6
92
38
10
ENDCHAR
STARTCHAR plus
ENCODING 43
SWIDTH 480 0
DWIDTH 8 0
BBX 8 9 0 2
BITMAP
10
10
10
10
FE
10
10
10
10
ENDCHAR
STARTCHAR comma
ENCODING 44
SWIDTH 480 0
DWIDTH 8 0
BBX 8 5 0 -2
BITMAP
E0
E0
20
20
C0
ENDCHAR
STARTCHAR hyphen
ENCODING 45
SWIDTH 480 0
DWIDTH 8 0
BBX 8 1 0 6
BITMAP
FE
ENDCHAR
STARTCHAR period
ENCODING 46
SWIDTH 480 0
DWIDTH 8 0
BBX 8 4 0 -1
BITMAP
20
70
70
20
ENDCHAR
STARTCHAR slash
ENCODING 47
SWIDTH 480 0
DWIDTH 8 0
BBX 8 16 0 -2
BITMAP
02
02
04
04
08
08
08
10
10
10
20
20
40
40
80
80
ENDCHAR
STARTCHAR zero
ENCODING 48
SWIDTH 480 0
DWIDTH 8 0
BBX 8 13 0 0
BITMAP
18
24
24
42
42
42
42
42
42
42
24
24
18
ENDCHAR
STARTCHAR one
ENCODING 49
SWIDTH 480 0
DWIDTH 8 0
BBX 8 13 0 0
BITMAP
10
70
10
10
10
10
10
10
10
10
10
10
7C
ENDCHAR
STARTCHAR two
ENCODING 50
SWIDTH 480 0
DWIDTH 8 0
BBX 8 13 0 0
BITMAP
18
24
42
62
02
04
08
08
10
20
22
42
7E
ENDCHAR
STARTCHAR three
ENCODING 51
SWIDTH 480 0
DWIDTH 8 0
BBX 8 13 0 0
BITMAP
38
44
82
82
02
04
38
04
02
82
82
44
38
ENDCHAR
STARTCHAR four
ENCODING 52
SWIDTH 480 0
DWIDTH 8 0
BBX 8 13 0 0
BITMAP
08
18
28
28
48
48
88
88
FE
08
08
08
3C
ENDCHAR
STARTCHAR five
ENCODING 53
SWIDTH 480 0
DWIDTH 8 0
BBX 8 13 0 0
BITMAP
FC
80
80
80
B8
C4
82
02
02
C2
82
44
38
ENDCHAR
STARTCHAR six
ENCODING 54
SWIDTH 480 0
DWIDTH 8 0
BBX 8 13 0 0
BITMAP
3C
42
46
80
80
B8
C4
82
82
82
82
44
38
ENDCHAR
STARTCHAR seven
ENCODING 55
SWIDTH 480 0
DWIDTH 8 0
BBX 8 13 0 0
BITMAP
FE
82
82
04
04
04
08
08
08
08
10
10
10
ENDCHAR
STARTCHAR eight
ENCODING 56
SWIDTH 480 0
DWIDTH 8 0
BBX 8 13 0 0
BITMAP
38
44
82
82
82
44
38
44
82
82
82
44
38
ENDCHAR
STARTCHAR nine
ENCODING 57
SWIDTH 480 0
DWIDTH 8 0
BBX 8 13 0 0
BITMAP
38
44
82
82
82
82
46
3A
02
02
82
44
38
ENDCHAR
STARTCHAR colon
ENCODING 58
SWIDTH 480 0
DWIDTH 8 0
BBX 8 9 0 0
BITMAP
38
38
00
00
00
00
00
38
38
ENDCHAR
STARTCHAR semicolon
ENCODING 59
SWIDTH 480 0
DWIDTH 8 0
BBX 8 11 0 -2
BITMAP
38
38
00
00
00
00
38
38
18
10
30
ENDCHAR
STARTCHAR less
ENCODING 60
SWIDTH 480 0
DWIDTH 8 0
BBX 8 16 0 -2
BITMAP
02
04
04
08
08
10
10
20
20
10
10
08
08
04
04
02
ENDCHAR
STARTCHAR equal
ENCODING 61
SWIDTH 480 0
DWIDTH 8 0
BBX 8 5 0 4
BITMAP
FE
00
00
00
FE
ENDCHAR
STARTCHAR greater
ENCODING 62
SWIDTH 480 0
DWIDTH 8 0
BBX 8 16 0 -2
BITMAP
80
40
40
20
20
10
10
08
08
10
10
20
20
40
40
80
ENDCHAR
STARTCHAR question
ENCODING 63
SWIDTH 480 0
DWIDTH 8 0
BBX 8 14 0 -1
BITMAP
38
44
82
C2
02
04
04
08
10
10
00
10
38
10
ENDCHAR
STARTCHAR at
ENCODING 64
SWIDTH 480 0
DWIDTH 8 0
BBX 8 13 0 0
BITMAP
3C
42
82
9A
A6
A2
A2
A2
A6
9A
80
42
3C
ENDCHAR
STARTCHAR A
ENCODING 65
SWIDTH 480 0
DWIDTH 8 0
BBX 8 13 0 0
BITMAP
10
28
28
28
44
44
44
44
7C
82
82
82
C6
ENDCHAR
STARTCHAR B
ENCODING 66
SWIDTH 480 0
DWIDTH 8 0
BBX 8 13 0 0
BITMAP
F8
44
42
42
42
44
78
44
42
42
42
42
FC
ENDCHAR
STARTCHAR C
ENCODING 67
SWIDTH 480 0
DWIDTH 8 0
BBX 8 13 0 0
BITMAP
3A
46
42
80
80
80
80
80
80
82
42
42
3C
ENDCHAR
STARTCHAR D
ENCODING 68
SWIDTH 480 0
DWIDTH 8 0
BBX 8 13 0 0
BITMAP
F8
44
44
42
42
42
42
42
42
42
44
44
F8
ENDCHAR
STARTCHAR E
ENCODING 69
SWIDTH 480 0
DWIDTH 8 0
BBX 8 13 0 0
BITMAP
FE
42
42
40
48
48
78
48
48
42
42
42
FE
ENDCHAR
STARTCHAR F
ENCODING 70
SWIDTH 480 0
DWIDTH 8 0
BBX 8 13 0 0
BITMAP
FE
42
42
40
48
48
78
48
48
40
40
40
F0
ENDCHAR
STARTCHAR G
ENCODING 71
SWIDTH 480 0
DWIDTH 8 0
BBX 8 13 0 0
BITMAP
1A
26
42
40
80
80
8F
82
82
82
42
66
1A
ENDCHAR
STARTCHAR H
ENCODING 72
SWIDTH 480 0
DWIDTH 8 0
BBX 8 13 0 0
BITMAP
E7
42
42
42
42
7E
42
42
42
42
42
42
E7
ENDCHAR
STARTCHAR I
ENCODING 73
SWIDTH 480 0
DWIDTH 8 0
BBX 8 13 0 0
BITMAP
FE
10
10
10
10
10
10
10
10
10
10
10
FE
ENDCHAR
STARTCHAR J
ENCODING 74
SWIDTH 480 0
DWIDTH 8 0
BBX 8 13 0 0
BITMAP
1F
02
02
02
02
02
02
02
82
82
82
44
38
ENDCHAR
STARTCHAR K
ENCODING 75
SWIDTH 480 0
DWIDTH 8 0
BBX 8 13 0 0
BITMAP
E6
44
44
48
48
70
50
48
48
44
44
42
E3
ENDCHAR
STARTCHAR L
ENCODING 76
SWIDTH 480 0
DWIDTH 8 0
BBX 8 13 0 0
BITMAP
F0
40
40
40
40
40
40
40
40
42
42
42
FE
ENDCHAR
STARTCHAR M
ENCODING 77
SWIDTH 480 0
DWIDTH 8 0
BBX 8 13 0 0
BITMAP
82
C6
AA
AA
AA
92
92
92
82
82
82
82
C6
ENDCHAR
STARTCHAR N
ENCODING 78
SWIDTH 480 0
DWIDTH 8 0
BBX 8 13 0 0
BITMAP
87
C2
A2
A2
A2
92
92
92
8A
8A
8A
86
C2
ENDCHAR
STARTCHAR O
ENCODING 79
SWIDTH 480 0
DWIDTH 8 0
BBX 8 13 0 0
BITMAP
38
44
82
82
82
82
82
82
82
82
82
44
38
ENDCHAR
STARTCHAR P
ENCODING 80
SWIDTH 480 0
DWIDTH 8 0
BBX 8 13 0 0
BITMAP
F8
44
42
42
42
42
44
78
40
40
40
40
F0
ENDCHAR
STARTCHAR Q
ENCODING 81
SWIDTH 480 0
DWIDTH 8 0
BBX 8 15 0 -2
BITMAP
38
44
44
82
82
82
82
82
82
BA
44
44
38
08
06
ENDCHAR
STARTCHAR R
ENCODING 82
SWIDTH 480 0
DWIDTH 8 0
BBX 8 13 0 0
BITMAP
F8
44
42
42
42
44
78
48
44
44
44
42
E3
ENDCHAR
STARTCHAR S
ENCODING 83
SWIDTH 480 0
DWIDTH 8 0
BBX 8 13 0 0
BITMAP
34
4C
84
80
80
60
18
04
82
82
82
C4
B8
ENDCHAR
STARTCHAR T
ENCODING 84
SWIDTH 480 0
DWIDTH 8 0
BBX 8 13 0 0
BITMAP
FE
92
92
10
10
10
10
10
10
10
10
10
7C
ENDCHAR
STARTCHAR U
ENCODING 85
SWIDTH 480 0
DWIDTH 8 0
BBX 8 13 0 0
BITMAP
E7
42
42
42
42
42
42
42
42
42
42
42
3C
ENDCHAR
STARTCHAR V
ENCODING 86
SWIDTH 480 0
DWIDTH 8 0
BBX 8 13 0 0
BITMAP
C6
82
82
82
82
44
44
44
44
28
28
10
10
ENDCHAR
STARTCHAR W
ENCODING 87
SWIDTH 480 0
DWIDTH 8 0
BBX 8 13 0 0
BITMAP
C6
82
82
82
92
92
92
AA
AA
AA
44
44
44
ENDCHAR
STARTCHAR X
ENCODING 88
SWIDTH 480 0
DWIDTH 8 0
BBX 8 13 0 0
BITMAP
EE
44
44
28
28
10
28
28
28
44
44
82
C6
ENDCHAR
STARTCHAR Y
ENCODING 89
SWIDTH 480 0
DWIDTH 8 0
BBX 8 13 0 0
BITMAP
C6
82
44
44
44
28
28
10
10
10
10
10
7C
ENDCHAR
STARTCHAR Z
ENCODING 90
SWIDTH 480 0
DWIDTH 8 0
BBX 8 13 0 0
BITMAP
FE
84
88
08
10
10
10
20
20
42
42
82
FE
ENDCHAR
STARTCHAR bracketleft
ENCODING 91
SWIDTH 480 0
DWIDTH 8 0
BBX 8 16 0 -2
BITMAP
1E
10
10
10
10
10
10
10
10
10
10
10
10
10
10
1E
ENDCHAR
STARTCHAR backslash
ENCODING 92
SWIDTH 480 0
DWIDTH 8 0
BBX 8 14 0 -1
BITMAP
80
80
40
40
20
20
10
10
08
08
04
04
02
02
ENDCHAR
STARTCHAR bracketright
ENCODING 93
SWIDTH 480 0
DWIDTH 8 0
BBX 8 16 0 -2
BITMAP
F0
10
10
10
10
10
10
10
10
10
10
10
10
10
10
F0
ENDCHAR
STARTCHAR asciicircum
ENCODING 94
SWIDTH 480 0
DWIDTH 8 0
BBX 8 4 0 10
BITMAP
10
28
44
82
ENDCHAR
STARTCHAR underscore
ENCODING 95
SWIDTH 480 0
DWIDTH 8 0
BBX 8 1 0 -2
BITMAP
FE
ENDCHAR
STARTCHAR grave
ENCODING 96
SWIDTH 480 0
DWIDTH 8 0
BBX 8 4 0 9
BITMAP
60
60
20
10
ENDCHAR
STARTCHAR a
ENCODING 97
SWIDTH 480 0
DWIDTH 8 0
BBX 8 9 0 0
BITMAP
3C
42
02
3E
42
82
82
86
7B
ENDCHAR
STARTCHAR b
ENCODING 98
SWIDTH 480 0
DWIDTH 8 0
BBX 8 13 0 0
BITMAP
C0
40
40
40
78
44
42
42
42
42
42
44
78
ENDCHAR
STARTCHAR c
ENCODING 99
SWIDTH 480 0
DWIDTH 8 0
BBX 8 9 0 0
BITMAP
3A
46
82
80
80
80
82
42
3C
ENDCHAR
STARTCHAR d
ENCODING 100
SWIDTH 480 0
DWIDTH 8 0
BBX 8 13 0 0
BITMAP
06
04
04
04
3C
44
84
84
84
84
84
44
3E
ENDCHAR
STARTCHAR e
ENCODING 101
SWIDTH 480 0
DWIDTH 8 0
BBX 8 9 0 0
BITMAP
38
44
82
FE
80
80
82
42
3C
ENDCHAR
STARTCHAR f
ENCODING 102
SWIDTH 480 0
DWIDTH 8 0
BBX 8 13 0 0
BITMAP
0E
11
10
10
FE
10
10
10
10
10
10
10
7C
ENDCHAR
STARTCHAR g
ENCODING 103
SWIDTH 480 0
DWIDTH 8 0
BBX 8 11 0 -2
BITMAP
3B
44
44
44
38
40
78
84
82
82
7C
ENDCHAR
STARTCHAR h
ENCODING 104
SWIDTH 480 0
DWIDTH 8 0
BBX 8 13 0 0
BITMAP
C0
40
40
40
5C
62
42
42
42
42
42
42
E7
ENDCHAR
STARTCHAR i
ENCODING 105
SWIDTH 480 0
DWIDTH 8 0
BBX 8 14 0 0
BITMAP
18
18
00
00
00
78
08
08
08
08
08
08
08
FF
ENDCHAR
STARTCHAR j
ENCODING 106
SWIDTH 480 0
DWIDTH 8 0
BBX 8 16 0 -2
BITMAP
06
06
00
00
00
3E
02
02
02
02
02
02
82
82
44
38
ENDCHAR
STARTCHAR k
ENCODING 107
SWIDTH 480 0
DWIDTH 8 0
BBX 8 13 0 0
BITMAP
C0
40
40
40
42
44
48
58
64
44
42
42
E3
ENDCHAR
STARTCHAR l
ENCODING 108
SWIDTH 480 0
DWIDTH 8 0
BBX 8 13 0 0
BITMAP
78
08
08
08
08
08
08
08
08
08
08
08
FF
ENDCHAR
STARTCHAR m
ENCODING 109
SWIDTH 480 0
DWIDTH 8 0
BBX 8 9 0 0
BITMAP
6C
92
92
92
92
92
92
92
DB
ENDCHAR
STARTCHAR n
ENCODING 110
SWIDTH 480 0
DWIDTH 8 0
BBX 8 9 0 0
BITMAP
DC
62
42
42
42
42
42
42
E7
ENDCHAR
STARTCHAR o
ENCODING 111
SWIDTH 480 0
DWIDTH 8 0
BBX 8 9 0 0
BITMAP
38
44
82
82
82
82
82
44
38
ENDCHAR
STARTCHAR p
ENCODING 112
SWIDTH 480 0
DWIDTH 8 0
BBX 8 11 0 -2
BITMAP
F8
44
42
42
42
42
44
78
40
40
F0
ENDCHAR
STARTCHAR q
ENCODING 113
SWIDTH 480 0
DWIDTH 8 0
BBX 8 11 0 -2
BITMAP
3E
44
84
84
84
84
44
3C
04
04
1E
ENDCHAR
STARTCHAR r
ENCODING 114
SWIDTH 480 0
DWIDTH 8 0
BBX 8 9 0 0
BITMAP
EC
32
22
20
20
20
20
20
FC
ENDCHAR
STARTCHAR s
ENCODING 115
SWIDTH 480 0
DWIDTH 8 0
BBX 8 9 0 0
BITMAP
3A
46
42
40
3C
02
82
C2
BC
ENDCHAR
STARTCHAR t
ENCODING 116
SWIDTH 480 0
DWIDTH 8 0
BBX 8 12 0 0
BITMAP
20
20
20
FC
20
20
20
20
20
22
22
1C
ENDCHAR
STARTCHAR u
ENCODING 117
SWIDTH 480 0
DWIDTH 8 0
BBX 8 9 0 0
BITMAP
C6
42
42
42
42
42
42
46
39
ENDCHAR
STARTCHAR v
ENCODING 118
SWIDTH 480 0
DWIDTH 8 0
BBX 8 9 0 0
BITMAP
C6
82
82
44
44
44
28
28
10
ENDCHAR
STARTCHAR w
ENCODING 119
SWIDTH 480 0
DWIDTH 8 0
BBX 8 9 0 0
BITMAP
92
92
92
92
AA
AA
44
44
44
ENDCHAR
STARTCHAR x
ENCODING 120
SWIDTH 480 0
DWIDTH 8 0
BBX 8 9 0 0
BITMAP
EE
44
28
28
10
28
28
44
EE
ENDCHAR
STARTCHAR y
ENCODING 121
SWIDTH 480 0
DWIDTH 8 0
BBX 8 11 0 -2
BITMAP
E7
42
22
24
14
08
08
10
90
A0
40
ENDCHAR
STARTCHAR z
ENCODING 122
SWIDTH 480 0
DWIDTH 8 0
BBX 8 9 0 0
BITMAP
7E
44
08
08
10
10
22
42
FE
ENDCHAR
STARTCHAR braceleft
ENCODING 123
SWIDTH 480 0
DWIDTH 8 0
BBX 8 16 0 -2
BITMAP
06
08
08
08
08
08
10
20
10
08
08
08
08
08
08
06
ENDCHAR
STARTCHAR bar
ENCODING 124
SWIDTH 480 0
DWIDTH 8 0
BBX 8 16 0 -2
BITMAP
10
10
10
10
10
10
10
10
10
10
10
10
10
10
10
10
ENDCHAR
STARTCHAR braceright
ENCODING 125
SWIDTH 480 0
DWIDTH 8 0
BBX 8 16 0 -2
BITMAP
C0
20
20
20
20
20
10
08
10
20
20
20
20
20
20
C0
ENDCHAR
STARTCHAR asciitilde
ENCODING 126
SWIDTH 480 0
DWIDTH 8 0
BBX 8 3 0 11
BITMAP
60
92
0C
ENDCHAR
STARTCHAR bullet
ENCODING 149
SWIDTH 480 0
DWIDTH 8 0
BBX 8 5 0 3
BITMAP
18
3C
3C
3C
18
ENDCHAR
STARTCHAR lessequal
ENCODING 152
SWIDTH 480 0
DWIDTH 8 0
BBX 8 10 0 0
BITMAP
02
0C
30
C0
30
0C
02
FE
00
FE
ENDCHAR
STARTCHAR greaterequal
ENCODING 153
SWIDTH 480 0
DWIDTH 8 0
BBX 8 10 0 0
BITMAP
80
60
18
06
18
60
80
FE
00
FE
ENDCHAR
STARTCHAR degree
ENCODING 156
SWIDTH 480 0
DWIDTH 8 0
BBX 8 5 0 8
BITMAP
38
44
44
44
38
ENDCHAR
STARTCHAR twosuperior
ENCODING 157
SWIDTH 480 0
DWIDTH 8 0
BBX 8 7 0 6
BITMAP
18
24
04
08
10
20
3C
ENDCHAR
STARTCHAR periodcentered
ENCODING 158
SWIDTH 480 0
DWIDTH 8 0
BBX 8 1 0 5
BITMAP
10
ENDCHAR
STARTCHAR afii10071
ENCODING 163
SWIDTH 480 0
DWIDTH 8 0
BBX 8 12 0 0
BITMAP
6C
6C
00
38
44
82
FE
80
80
82
42
3C
ENDCHAR
STARTCHAR afii10023
ENCODING 179
SWIDTH 480 0
DWIDTH 8 0
BBX 8 14 0 0
BITMAP
6C
FE
42
42
40
48
48
78
48
48
42
42
42
FE
ENDCHAR
STARTCHAR copyright
ENCODING 191
SWIDTH 480 0
DWIDTH 8 0
BBX 8 13 0 0
BITMAP
3C
42
99
A5
A1
A1
A1
A1
A1
A5
99
42
3C
ENDCHAR
STARTCHAR afii10096
ENCODING 192
SWIDTH 480 0
DWIDTH 8 0
BBX 8 9 0 0
BITMAP
CC
92
92
92
F2
92
92
92
8C
ENDCHAR
STARTCHAR afii10065
ENCODING 193
SWIDTH 480 0
DWIDTH 8 0
BBX 8 9 0 0
BITMAP
3C
42
02
3E
42
82
82
86
7B
ENDCHAR
STARTCHAR afii10066
ENCODING 194
SWIDTH 480 0
DWIDTH 8 0
BBX 8 13 0 0
BITMAP
04
38
40
80
B8
C4
82
82
82
82
82
44
38
ENDCHAR
STARTCHAR afii10088
ENCODING 195
SWIDTH 480 0
DWIDTH 8 0
BBX 8 11 0 -2
BITMAP
E7
42
42
42
42
42
42
42
FF
01
01
ENDCHAR
STARTCHAR afii10069
ENCODING 196
SWIDTH 480 0
DWIDTH 8 0
BBX 8 11 0 -2
BITMAP
3F
12
12
22
22
22
42
42
FF
81
81
ENDCHAR
STARTCHAR afii10070
ENCODING 197
SWIDTH 480 0
DWIDTH 8 0
BBX 8 9 0 0
BITMAP
38
44
82
FE
80
80
82
42
3C
ENDCHAR
STARTCHAR afii10086
ENCODING 198
SWIDTH 480 0
DWIDTH 8 0
BBX 8 13 0 -2
BITMAP
38
10
7C
92
92
92
92
92
92
92
7C
10
7C
ENDCHAR
STARTCHAR afii10068
ENCODING 199
SWIDTH 480 0
DWIDTH 8 0
BBX 8 9 0 0
BITMAP
FE
42
40
40
40
40
40
40
F0
ENDCHAR
STARTCHAR afii10087
ENCODING 200
SWIDTH 480 0
DWIDTH 8 0
BBX 8 9 0 0
BITMAP
EE
44
28
28
10
28
28
44
EE
ENDCHAR
STARTCHAR afii10074
ENCODING 201
SWIDTH 480 0
DWIDTH 8 0
BBX 8 9 0 0
BITMAP
E7
42
46
4A
52
62
42
42
E7
ENDCHAR
STARTCHAR afii10075
ENCODING 202
SWIDTH 480 0
DWIDTH 8 0
BBX 8 12 0 0
BITMAP
24
18
00
E7
42
46
4A
52
62
42
42
E7
ENDCHAR
STARTCHAR afii10076
ENCODING 203
SWIDTH 480 0
DWIDTH 8 0
BBX 8 9 0 0
BITMAP
E6
44
48
48
70
48
44
42
E3
ENDCHAR
STARTCHAR afii10077
ENCODING 204
SWIDTH 480 0
DWIDTH 8 0
BBX 8 9 0 0
BITMAP
7F
22
22
22
22
22
22
A2
C7
ENDCHAR
STARTCHAR afii10078
ENCODING 205
SWIDTH 480 0
DWIDTH 8 0
BBX 8 9 0 0
BITMAP
82
C6
AA
AA
92
92
82
82
C6
ENDCHAR
STARTCHAR afii10079
ENCODING 206
SWIDTH 480 0
DWIDTH 8 0
BBX 8 9 0 0
BITMAP
E7
42
42
42
7E
42
42
42
E7
ENDCHAR
STARTCHAR afii10080
ENCODING 207
SWIDTH 480 0
DWIDTH 8 0
BBX 8 9 0 0
BITMAP
38
44
82
82
82
82
82
44
38
ENDCHAR
STARTCHAR afii10081
ENCODING 208
SWIDTH 480 0
DWIDTH 8 0
BBX 8 9 0 0
BITMAP
FF
42
42
42
42
42
42
42
E7
ENDCHAR
STARTCHAR afii10097
ENCODING 209
SWIDTH 480 0
DWIDTH 8 0
BBX 8 9 0 0
BITMAP
3F
42
42
42
3E
12
22
22
C7
ENDCHAR
STARTCHAR afii10082
ENCODING 210
SWIDTH 480 0
DWIDTH 8 0
BBX 8 11 0 -2
BITMAP
F8
44
42
42
42
42
44
78
40
40
F0
ENDCHAR
STARTCHAR afii10083
ENCODING 211
SWIDTH 480 0
DWIDTH 8 0
BBX 8 9 0 0
BITMAP
3A
46
82
80
80
80
82
42
3C
ENDCHAR
STARTCHAR afii10084
ENCODING 212
SWIDTH 480 0
DWIDTH 8 0
BBX 8 9 0 0
BITMAP
FE
92
10
10
10
10
10
10
38
ENDCHAR
STARTCHAR afii10085
ENCODING 213
SWIDTH 480 0
DWIDTH 8 0
BBX 8 11 0 -2
BITMAP
E7
42
22
24
14
08
08
10
90
A0
40
ENDCHAR
STARTCHAR afii10072
ENCODING 214
SWIDTH 480 0
DWIDTH 8 0
BBX 8 9 0 0
BITMAP
DB
92
92
54
7C
92
92
92
DB
ENDCHAR
STARTCHAR afii10067
ENCODING 215
SWIDTH 480 0
DWIDTH 8 0
BBX 8 9 0 0
BITMAP
F8
44
42
44
78
44
42
42
FC
ENDCHAR
STARTCHAR afii10094
ENCODING 216
SWIDTH 480 0
DWIDTH 8 0
BBX 8 9 0 0
BITMAP
E0
40
40
7C
42
42
42
42
FC
ENDCHAR
STARTCHAR afii10093
ENCODING 217
SWIDTH 480 0
DWIDTH 8 0
BBX 8 9 0 0
BITMAP
C7
82
82
F2
8A
8A
8A
8A
F3
ENDCHAR
STARTCHAR afii10073
ENCODING 218
SWIDTH 480 0
DWIDTH 8 0
BBX 8 9 0 0
BITMAP
38
44
C2
04
18
04
C2
42
3C
ENDCHAR
STARTCHAR afii10090
ENCODING 219
SWIDTH 480 0
DWIDTH 8 0
BBX 8 9 0 0
BITMAP
92
92
92
92
92
92
92
92
FE
ENDCHAR
STARTCHAR afii10095
ENCODING 220
SWIDTH 480 0
DWIDTH 8 0
BBX 8 9 0 0
BITMAP
38
44
C2
02
1E
02
C2
44
38
ENDCHAR
STARTCHAR afii10091
ENCODING 221
SWIDTH 480 0
DWIDTH 8 0
BBX 8 11 0 -2
BITMAP
92
92
92
92
92
92
92
92
FF
01
01
ENDCHAR
STARTCHAR afii10089
ENCODING 222
SWIDTH 480 0
DWIDTH 8 0
BBX 8 9 0 0
BITMAP
E7
42
42
42
3E
02
02
02
0F
ENDCHAR
STARTCHAR afii10092
ENCODING 223
SWIDTH 480 0
DWIDTH 8 0
BBX 8 9 0 0
BITMAP
E0
A0
A0
3C
22
22
22
22
7C
ENDCHAR
STARTCHAR afii10048
ENCODING 224
SWIDTH 480 0
DWIDTH 8 0
BBX 8 13 0 0
BITMAP
88
94
A2
A2
A2
A2
E2
A2
A2
A2
A2
94
88
ENDCHAR
STARTCHAR afii10017
ENCODING 225
SWIDTH 480 0
DWIDTH 8 0
BBX 8 13 0 0
BITMAP
10
28
28
28
44
44
44
44
7C
82
82
82
C6
ENDCHAR
STARTCHAR afii10018
ENCODING 226
SWIDTH 480 0
DWIDTH 8 0
BBX 8 13 0 0
BITMAP
FC
44
40
40
40
40
7C
42
42
42
42
42
FC
ENDCHAR
STARTCHAR afii10040
ENCODING 227
SWIDTH 480 0
DWIDTH 8 0
BBX 8 15 0 -2
BITMAP
E7
42
42
42
42
42
42
42
42
42
42
42
FF
01
01
ENDCHAR
STARTCHAR afii10021
ENCODING 228
SWIDTH 480 0
DWIDTH 8 0
BBX 8 15 0 -2
BITMAP
3F
12
12
12
22
22
22
22
42
42
42
42
FF
81
81
ENDCHAR
STARTCHAR afii10022
ENCODING 229
SWIDTH 480 0
DWIDTH 8 0
BBX 8 13 0 0
BITMAP
FE
42
42
40
48
48
78
48
48
42
42
42
FE
ENDCHAR
STARTCHAR afii10038
ENCODING 230
SWIDTH 480 0
DWIDTH 8 0
BBX 8 13 0 0
BITMAP
38
10
7C
92
92
92
92
92
92
92
7C
10
7C
ENDCHAR
STARTCHAR afii10020
ENCODING 231
SWIDTH 480 0
DWIDTH 8 0
BBX 8 13 0 0
BITMAP
FE
42
42
40
40
40
40
40
40
40
40
40
F0
ENDCHAR
STARTCHAR afii10039
ENCODING 232
SWIDTH 480 0
DWIDTH 8 0
BBX 8 13 0 0
BITMAP
EE
44
44
28
28
10
28
28
28
44
44
82
C6
ENDCHAR
STARTCHAR afii10026
ENCODING 233
SWIDTH 480 0
DWIDTH 8 0
BBX 8 13 0 0
BITMAP
C2
86
8A
8A
8A
92
92
92
A2
A2
A2
C2
87
ENDCHAR
STARTCHAR afii10027
ENCODING 234
SWIDTH 480 0
DWIDTH 8 0
BBX 8 14 0 0
BITMAP
38
92
86
8A
8A
8A
92
92
92
A2
A2
A2
C2
87
ENDCHAR
STARTCHAR afii10028
ENCODING 235
SWIDTH 480 0
DWIDTH 8 0
BBX 8 13 0 0
BITMAP
E6
44
44
48
48
70
50
48
48
44
44
42
E3
ENDCHAR
STARTCHAR afii10029
ENCODING 236
SWIDTH 480 0
DWIDTH 8 0
BBX 8 13 0 0
BITMAP
7F
22
22
22
22
22
22
22
22
22
22
A2
C7
ENDCHAR
STARTCHAR afii10030
ENCODING 237
SWIDTH 480 0
DWIDTH 8 0
BBX 8 13 0 0
BITMAP
82
C6
AA
AA
AA
92
92
92
82
82
82
82
C6
ENDCHAR
STARTCHAR afii10031
ENCODING 238
SWIDTH 480 0
DWIDTH 8 0
BBX 8 13 0 0
BITMAP
E7
42
42
42
42
7E
42
42
42
42
42
42
E7
ENDCHAR
STARTCHAR afii10032
ENCODING 239
SWIDTH 480 0
DWIDTH 8 0
BBX 8 13 0 0
BITMAP
38
44
82
82
82
82
82
82
82
82
82
44
38
ENDCHAR
STARTCHAR afii10033
ENCODING 240
SWIDTH 480 0
DWIDTH 8 0
BBX 8 13 0 0
BITMAP
FF
42
42
42
42
42
42
42
42
42
42
42
E7
ENDCHAR
STARTCHAR afii10049
ENCODING 241
SWIDTH 480 0
DWIDTH 8 0
BBX 8 13 0 0
BITMAP
1F
22
42
42
42
22
1E
12
22
22
22
42
C7
ENDCHAR
STARTCHAR afii10034
ENCODING 242
SWIDTH 480 0
DWIDTH 8 0
BBX 8 13 0 0
BITMAP
F8
44
42
42
42
42
44
78
40
40
40
40
F0
ENDCHAR
STARTCHAR afii10035
ENCODING 243
SWIDTH 480 0
DWIDTH 8 0
BBX 8 13 0 0
BITMAP
3A
46
42
80
80
80
80
80
80
82
42
42
3C
ENDCHAR
STARTCHAR afii10036
ENCODING 244
SWIDTH 480 0
DWIDTH 8 0
BBX 8 13 0 0
BITMAP
FE
92
92
10
10
10
10
10
10
10
10
10
7C
ENDCHAR
STARTCHAR afii10037
ENCODING 245
SWIDTH 480 0
DWIDTH 8 0
BBX 8 13 0 0
BITMAP
C6
82
44
44
44
28
28
18
10
10
20
A0
40
ENDCHAR
STARTCHAR afii10024
ENCODING 246
SWIDTH 480 0
DWIDTH 8 0
BBX 8 13 0 0
BITMAP
DB
92
92
92
54
54
38
54
92
92
92
92
DB
ENDCHAR
STARTCHAR afii10019
ENCODING 247
SWIDTH 480 0
DWIDTH 8 0
BBX 8 13 0 0
BITMAP
F8
44
42
42
42
44
78
44
42
42
42
42
FC
ENDCHAR
STARTCHAR afii10046
ENCODING 248
SWIDTH 480 0
DWIDTH 8 0
BBX 8 13 0 0
BITMAP
E0
40
40
40
40
40
78
44
42
42
42
42
FC
ENDCHAR
STARTCHAR afii10045
ENCODING 249
SWIDTH 480 0
DWIDTH 8 0
BBX 8 13 0 0
BITMAP
C7
82
82
82
82
E2
92
8A
8A
8A
8A
8A
F3
ENDCHAR
STARTCHAR afii10025
ENCODING 250
SWIDTH 480 0
DWIDTH 8 0
BBX 8 13 0 0
BITMAP
38
44
82
82
02
04
18
04
02
C2
82
44
38
ENDCHAR
STARTCHAR afii10042
ENCODING 251
SWIDTH 480 0
DWIDTH 8 0
BBX 8 13 0 0
BITMAP
92
92
92
92
92
92
92
92
92
92
92
92
FE
ENDCHAR
STARTCHAR afii10047
ENCODING 252
SWIDTH 480 0
DWIDTH 8 0
BBX 8 13 0 0
BITMAP
38
44
82
C2
02
02
3E
02
02
C2
82
44
38
ENDCHAR
STARTCHAR afii10043
ENCODING 253
SWIDTH 480 0
DWIDTH 8 0
BBX 8 15 0 -2
BITMAP
92
92
92
92
92
92
92
92
92
92
92
92
FF
01
01
ENDCHAR
STARTCHAR afii10041
ENCODING 254
SWIDTH 480 0
DWIDTH 8 0
BBX 8 13 0 0
BITMAP
E7
42
42
42
42
42
3E
02
02
02
02
02
0F
ENDCHAR
STARTCHAR afii10044
ENCODING 255
SWIDTH 480 0
DWIDTH 8 0
BBX 8 13 0 0
BITMAP
E0
A0
A0
20
20
20
38
24
22
22
22
22
7C
ENDCHAR
ENDFONT
